<mxfile host="app.diagrams.net" agent="Mozilla/5.0 (Windows NT 10.0; Win64; x64) AppleWebKit/537.36 (KHTML, like Gecko) Chrome/122.0.0.0 Safari/537.36" version="24.8.6">
  <diagram name="Page-1" id="wbZhOHO3daquvM1l0nuK">
    <mxGraphModel dx="1509" dy="903" grid="1" gridSize="10" guides="1" tooltips="1" connect="1" arrows="1" fold="1" page="1" pageScale="1" pageWidth="850" pageHeight="1100" math="0" shadow="0">
      <root>
        <mxCell id="0" />
        <mxCell id="1" parent="0" />
        <mxCell id="BPcDjgkUr0C_K0aYlzvF-1" style="edgeStyle=orthogonalEdgeStyle;rounded=0;orthogonalLoop=1;jettySize=auto;html=1;exitX=1;exitY=0.5;exitDx=0;exitDy=0;entryX=0;entryY=0.5;entryDx=0;entryDy=0;" edge="1" parent="1" source="BPcDjgkUr0C_K0aYlzvF-5" target="BPcDjgkUr0C_K0aYlzvF-8">
          <mxGeometry relative="1" as="geometry" />
        </mxCell>
        <mxCell id="BPcDjgkUr0C_K0aYlzvF-2" value="No" style="edgeLabel;html=1;align=center;verticalAlign=middle;resizable=0;points=[];" vertex="1" connectable="0" parent="BPcDjgkUr0C_K0aYlzvF-1">
          <mxGeometry x="-0.2286" relative="1" as="geometry">
            <mxPoint as="offset" />
          </mxGeometry>
        </mxCell>
        <mxCell id="BPcDjgkUr0C_K0aYlzvF-3" style="edgeStyle=orthogonalEdgeStyle;rounded=0;orthogonalLoop=1;jettySize=auto;html=1;exitX=0.5;exitY=1;exitDx=0;exitDy=0;" edge="1" parent="1" source="BPcDjgkUr0C_K0aYlzvF-5" target="BPcDjgkUr0C_K0aYlzvF-13">
          <mxGeometry relative="1" as="geometry">
            <mxPoint x="360" y="349.9999999999999" as="targetPoint" />
          </mxGeometry>
        </mxCell>
        <mxCell id="BPcDjgkUr0C_K0aYlzvF-4" value="Yes" style="edgeLabel;html=1;align=center;verticalAlign=middle;resizable=0;points=[];" vertex="1" connectable="0" parent="BPcDjgkUr0C_K0aYlzvF-3">
          <mxGeometry x="-0.4444" relative="1" as="geometry">
            <mxPoint y="9" as="offset" />
          </mxGeometry>
        </mxCell>
        <mxCell id="BPcDjgkUr0C_K0aYlzvF-5" value="At Color Sensor?" style="rhombus;whiteSpace=wrap;html=1;fontStyle=1;fillColor=#e1d5e7;strokeColor=#9673a6;" vertex="1" parent="1">
          <mxGeometry x="310" y="260" width="100" height="50" as="geometry" />
        </mxCell>
        <mxCell id="BPcDjgkUr0C_K0aYlzvF-6" style="edgeStyle=orthogonalEdgeStyle;rounded=0;orthogonalLoop=1;jettySize=auto;html=1;exitX=0.5;exitY=0;exitDx=0;exitDy=0;entryX=0.5;entryY=0;entryDx=0;entryDy=0;" edge="1" parent="1" source="BPcDjgkUr0C_K0aYlzvF-8" target="BPcDjgkUr0C_K0aYlzvF-5">
          <mxGeometry relative="1" as="geometry" />
        </mxCell>
        <mxCell id="BPcDjgkUr0C_K0aYlzvF-7" style="edgeStyle=orthogonalEdgeStyle;rounded=0;orthogonalLoop=1;jettySize=auto;html=1;exitX=1;exitY=0.5;exitDx=0;exitDy=0;entryX=0;entryY=0.5;entryDx=0;entryDy=0;" edge="1" parent="1" source="BPcDjgkUr0C_K0aYlzvF-8" target="BPcDjgkUr0C_K0aYlzvF-40">
          <mxGeometry relative="1" as="geometry">
            <Array as="points">
              <mxPoint x="690" y="285" />
              <mxPoint x="690" y="285" />
            </Array>
          </mxGeometry>
        </mxCell>
        <mxCell id="BPcDjgkUr0C_K0aYlzvF-8" value="Send Motor Start Signal" style="rounded=1;whiteSpace=wrap;html=1;fontStyle=1;fillColor=#d5e8d4;strokeColor=#82b366;" vertex="1" parent="1">
          <mxGeometry x="450" y="265" width="90" height="40" as="geometry" />
        </mxCell>
        <mxCell id="BPcDjgkUr0C_K0aYlzvF-14" style="edgeStyle=orthogonalEdgeStyle;rounded=0;orthogonalLoop=1;jettySize=auto;html=1;exitX=0.5;exitY=1;exitDx=0;exitDy=0;entryX=0.5;entryY=0;entryDx=0;entryDy=0;" edge="1" parent="1" source="BPcDjgkUr0C_K0aYlzvF-22" target="BPcDjgkUr0C_K0aYlzvF-28">
          <mxGeometry relative="1" as="geometry">
            <Array as="points">
              <mxPoint x="360" y="520" />
              <mxPoint x="300" y="520" />
            </Array>
          </mxGeometry>
        </mxCell>
        <mxCell id="BPcDjgkUr0C_K0aYlzvF-15" value="Green" style="edgeLabel;html=1;align=center;verticalAlign=middle;resizable=0;points=[];" vertex="1" connectable="0" parent="BPcDjgkUr0C_K0aYlzvF-14">
          <mxGeometry x="0.6" y="-1" relative="1" as="geometry">
            <mxPoint x="1" as="offset" />
          </mxGeometry>
        </mxCell>
        <mxCell id="BPcDjgkUr0C_K0aYlzvF-16" style="edgeStyle=orthogonalEdgeStyle;rounded=0;orthogonalLoop=1;jettySize=auto;html=1;exitX=0.5;exitY=1;exitDx=0;exitDy=0;entryX=0.5;entryY=0;entryDx=0;entryDy=0;" edge="1" parent="1" source="BPcDjgkUr0C_K0aYlzvF-22" target="BPcDjgkUr0C_K0aYlzvF-26">
          <mxGeometry relative="1" as="geometry">
            <Array as="points">
              <mxPoint x="360" y="520" />
              <mxPoint x="180" y="520" />
            </Array>
          </mxGeometry>
        </mxCell>
        <mxCell id="BPcDjgkUr0C_K0aYlzvF-17" value="Yellow" style="edgeLabel;html=1;align=center;verticalAlign=middle;resizable=0;points=[];" vertex="1" connectable="0" parent="BPcDjgkUr0C_K0aYlzvF-16">
          <mxGeometry x="0.8026" relative="1" as="geometry">
            <mxPoint as="offset" />
          </mxGeometry>
        </mxCell>
        <mxCell id="BPcDjgkUr0C_K0aYlzvF-18" style="edgeStyle=orthogonalEdgeStyle;rounded=0;orthogonalLoop=1;jettySize=auto;html=1;exitX=0.5;exitY=1;exitDx=0;exitDy=0;entryX=0.5;entryY=0;entryDx=0;entryDy=0;" edge="1" parent="1" source="BPcDjgkUr0C_K0aYlzvF-22" target="BPcDjgkUr0C_K0aYlzvF-24">
          <mxGeometry relative="1" as="geometry">
            <Array as="points">
              <mxPoint x="360" y="520" />
              <mxPoint x="420" y="520" />
            </Array>
          </mxGeometry>
        </mxCell>
        <mxCell id="BPcDjgkUr0C_K0aYlzvF-19" value="Blue" style="edgeLabel;html=1;align=center;verticalAlign=middle;resizable=0;points=[];" vertex="1" connectable="0" parent="BPcDjgkUr0C_K0aYlzvF-18">
          <mxGeometry x="0.6154" relative="1" as="geometry">
            <mxPoint as="offset" />
          </mxGeometry>
        </mxCell>
        <mxCell id="BPcDjgkUr0C_K0aYlzvF-20" style="edgeStyle=orthogonalEdgeStyle;rounded=0;orthogonalLoop=1;jettySize=auto;html=1;exitX=0.5;exitY=1;exitDx=0;exitDy=0;" edge="1" parent="1" source="BPcDjgkUr0C_K0aYlzvF-22" target="BPcDjgkUr0C_K0aYlzvF-30">
          <mxGeometry relative="1" as="geometry">
            <Array as="points">
              <mxPoint x="360" y="520" />
              <mxPoint x="540" y="520" />
            </Array>
          </mxGeometry>
        </mxCell>
        <mxCell id="BPcDjgkUr0C_K0aYlzvF-21" value="Red" style="edgeLabel;html=1;align=center;verticalAlign=middle;resizable=0;points=[];" vertex="1" connectable="0" parent="BPcDjgkUr0C_K0aYlzvF-20">
          <mxGeometry x="0.8143" relative="1" as="geometry">
            <mxPoint as="offset" />
          </mxGeometry>
        </mxCell>
        <mxCell id="BPcDjgkUr0C_K0aYlzvF-23" style="edgeStyle=orthogonalEdgeStyle;rounded=0;orthogonalLoop=1;jettySize=auto;html=1;exitX=0.5;exitY=1;exitDx=0;exitDy=0;entryX=0.5;entryY=0;entryDx=0;entryDy=0;" edge="1" parent="1" source="BPcDjgkUr0C_K0aYlzvF-24">
          <mxGeometry relative="1" as="geometry">
            <mxPoint x="360" y="650" as="targetPoint" />
          </mxGeometry>
        </mxCell>
        <mxCell id="BPcDjgkUr0C_K0aYlzvF-24" value="Set Servo to &quot;Blue&quot; Position" style="rounded=1;whiteSpace=wrap;html=1;fontStyle=1;fillColor=#d5e8d4;strokeColor=#82b366;" vertex="1" parent="1">
          <mxGeometry x="367.5" y="560" width="105" height="40" as="geometry" />
        </mxCell>
        <mxCell id="BPcDjgkUr0C_K0aYlzvF-25" style="edgeStyle=orthogonalEdgeStyle;rounded=0;orthogonalLoop=1;jettySize=auto;html=1;exitX=0.5;exitY=1;exitDx=0;exitDy=0;entryX=0.5;entryY=0;entryDx=0;entryDy=0;" edge="1" parent="1" source="BPcDjgkUr0C_K0aYlzvF-26">
          <mxGeometry relative="1" as="geometry">
            <mxPoint x="360" y="650" as="targetPoint" />
          </mxGeometry>
        </mxCell>
        <mxCell id="BPcDjgkUr0C_K0aYlzvF-26" value="Set Servo to &quot;Yellow&quot; Position" style="rounded=1;whiteSpace=wrap;html=1;fontStyle=1;fillColor=#d5e8d4;strokeColor=#82b366;" vertex="1" parent="1">
          <mxGeometry x="127.5" y="560" width="105" height="40" as="geometry" />
        </mxCell>
        <mxCell id="BPcDjgkUr0C_K0aYlzvF-27" style="edgeStyle=orthogonalEdgeStyle;rounded=0;orthogonalLoop=1;jettySize=auto;html=1;exitX=0.5;exitY=1;exitDx=0;exitDy=0;" edge="1" parent="1" source="BPcDjgkUr0C_K0aYlzvF-28">
          <mxGeometry relative="1" as="geometry">
            <mxPoint x="360" y="650" as="targetPoint" />
          </mxGeometry>
        </mxCell>
        <mxCell id="BPcDjgkUr0C_K0aYlzvF-28" value="Set Servo to &quot;Green&quot; Position" style="rounded=1;whiteSpace=wrap;html=1;fontStyle=1;fillColor=#d5e8d4;strokeColor=#82b366;" vertex="1" parent="1">
          <mxGeometry x="247.5" y="560" width="105" height="40" as="geometry" />
        </mxCell>
        <mxCell id="BPcDjgkUr0C_K0aYlzvF-29" style="edgeStyle=orthogonalEdgeStyle;rounded=0;orthogonalLoop=1;jettySize=auto;html=1;exitX=0.5;exitY=1;exitDx=0;exitDy=0;" edge="1" parent="1" source="BPcDjgkUr0C_K0aYlzvF-30">
          <mxGeometry relative="1" as="geometry">
            <mxPoint x="360" y="650" as="targetPoint" />
          </mxGeometry>
        </mxCell>
        <mxCell id="BPcDjgkUr0C_K0aYlzvF-30" value="Set Servo to &quot;Red&quot; Position" style="rounded=1;whiteSpace=wrap;html=1;fontStyle=1;fillColor=#d5e8d4;strokeColor=#82b366;" vertex="1" parent="1">
          <mxGeometry x="487.5" y="560" width="105" height="40" as="geometry" />
        </mxCell>
        <mxCell id="BPcDjgkUr0C_K0aYlzvF-36" style="edgeStyle=orthogonalEdgeStyle;rounded=0;orthogonalLoop=1;jettySize=auto;html=1;exitX=0.5;exitY=1;exitDx=0;exitDy=0;entryX=0;entryY=0.5;entryDx=0;entryDy=0;" edge="1" parent="1" source="BPcDjgkUr0C_K0aYlzvF-115" target="BPcDjgkUr0C_K0aYlzvF-5">
          <mxGeometry relative="1" as="geometry">
            <Array as="points">
              <mxPoint x="360" y="780" />
              <mxPoint x="110" y="780" />
              <mxPoint x="110" y="285" />
            </Array>
            <mxPoint x="360" y="760" as="sourcePoint" />
          </mxGeometry>
        </mxCell>
        <mxCell id="BPcDjgkUr0C_K0aYlzvF-48" value="" style="swimlane;startSize=0;dashed=1;strokeWidth=2;" vertex="1" parent="1">
          <mxGeometry x="60" y="230" width="600" height="590" as="geometry" />
        </mxCell>
        <mxCell id="BPcDjgkUr0C_K0aYlzvF-49" value="Arduino" style="text;html=1;align=center;verticalAlign=middle;resizable=0;points=[];autosize=1;strokeColor=none;fillColor=none;fontStyle=5;fontSize=22;" vertex="1" parent="BPcDjgkUr0C_K0aYlzvF-48">
          <mxGeometry x="20" y="10" width="100" height="40" as="geometry" />
        </mxCell>
        <mxCell id="BPcDjgkUr0C_K0aYlzvF-13" value="Read Color Sensor" style="rounded=1;whiteSpace=wrap;html=1;fontStyle=1;fillColor=#d5e8d4;strokeColor=#82b366;" vertex="1" parent="BPcDjgkUr0C_K0aYlzvF-48">
          <mxGeometry x="255" y="150" width="90" height="40" as="geometry" />
        </mxCell>
        <mxCell id="BPcDjgkUr0C_K0aYlzvF-22" value="Color?" style="rhombus;whiteSpace=wrap;html=1;fontStyle=1;fillColor=#e1d5e7;strokeColor=#9673a6;" vertex="1" parent="BPcDjgkUr0C_K0aYlzvF-48">
          <mxGeometry x="255" y="230" width="90" height="40" as="geometry" />
        </mxCell>
        <mxCell id="BPcDjgkUr0C_K0aYlzvF-12" style="edgeStyle=orthogonalEdgeStyle;rounded=0;orthogonalLoop=1;jettySize=auto;html=1;exitX=0.5;exitY=1;exitDx=0;exitDy=0;entryX=0.5;entryY=0;entryDx=0;entryDy=0;" edge="1" parent="BPcDjgkUr0C_K0aYlzvF-48" source="BPcDjgkUr0C_K0aYlzvF-13" target="BPcDjgkUr0C_K0aYlzvF-22">
          <mxGeometry relative="1" as="geometry" />
        </mxCell>
        <mxCell id="BPcDjgkUr0C_K0aYlzvF-115" value="Update Metrics" style="rounded=1;whiteSpace=wrap;html=1;fontStyle=1;fillColor=#d5e8d4;strokeColor=#82b366;" vertex="1" parent="BPcDjgkUr0C_K0aYlzvF-48">
          <mxGeometry x="272.5" y="420" width="55" height="40" as="geometry" />
        </mxCell>
        <mxCell id="BPcDjgkUr0C_K0aYlzvF-50" value="" style="swimlane;startSize=0;dashed=1;strokeWidth=2;container=0;" vertex="1" parent="1">
          <mxGeometry x="660" y="230" width="240" height="590" as="geometry" />
        </mxCell>
        <mxCell id="BPcDjgkUr0C_K0aYlzvF-51" value="PLC" style="text;html=1;align=center;verticalAlign=middle;resizable=0;points=[];autosize=1;strokeColor=none;fillColor=none;fontStyle=5;fontSize=22;" vertex="1" parent="1">
          <mxGeometry x="700" y="50" width="70" height="40" as="geometry" />
        </mxCell>
        <mxCell id="BPcDjgkUr0C_K0aYlzvF-52" value="Process" style="ellipse;whiteSpace=wrap;html=1;fontStyle=1;fillColor=#dae8fc;strokeColor=#6c8ebf;" vertex="1" parent="1">
          <mxGeometry x="745" y="600" width="70" height="30" as="geometry" />
        </mxCell>
        <mxCell id="BPcDjgkUr0C_K0aYlzvF-53" value="Decision" style="rhombus;whiteSpace=wrap;html=1;fontStyle=1;fillColor=#e1d5e7;strokeColor=#9673a6;" vertex="1" parent="1">
          <mxGeometry x="735" y="680" width="90" height="40" as="geometry" />
        </mxCell>
        <mxCell id="BPcDjgkUr0C_K0aYlzvF-54" value="Action" style="rounded=1;whiteSpace=wrap;html=1;fontStyle=1;fillColor=#d5e8d4;strokeColor=#82b366;" vertex="1" parent="1">
          <mxGeometry x="750" y="640" width="60" height="30" as="geometry" />
        </mxCell>
        <mxCell id="BPcDjgkUr0C_K0aYlzvF-55" value="Legend" style="swimlane;whiteSpace=wrap;html=1;" vertex="1" parent="1">
          <mxGeometry x="720" y="560" width="120" height="180" as="geometry" />
        </mxCell>
        <mxCell id="BPcDjgkUr0C_K0aYlzvF-39" style="edgeStyle=orthogonalEdgeStyle;rounded=0;orthogonalLoop=1;jettySize=auto;html=1;exitX=0.5;exitY=1;exitDx=0;exitDy=0;entryX=0.5;entryY=0;entryDx=0;entryDy=0;" edge="1" parent="1" source="BPcDjgkUr0C_K0aYlzvF-40" target="BPcDjgkUr0C_K0aYlzvF-45">
          <mxGeometry relative="1" as="geometry" />
        </mxCell>
        <mxCell id="BPcDjgkUr0C_K0aYlzvF-40" value="Parse MQTT Message" style="rounded=1;whiteSpace=wrap;html=1;fontStyle=1;fillColor=#d5e8d4;strokeColor=#82b366;" vertex="1" parent="1">
          <mxGeometry x="735" y="265" width="90" height="40" as="geometry" />
        </mxCell>
        <mxCell id="BPcDjgkUr0C_K0aYlzvF-41" style="edgeStyle=orthogonalEdgeStyle;rounded=0;orthogonalLoop=1;jettySize=auto;html=1;exitX=0.5;exitY=1;exitDx=0;exitDy=0;entryX=0.5;entryY=0;entryDx=0;entryDy=0;" edge="1" parent="1" source="BPcDjgkUr0C_K0aYlzvF-45">
          <mxGeometry relative="1" as="geometry">
            <Array as="points">
              <mxPoint x="780" y="410" />
              <mxPoint x="730" y="410" />
            </Array>
            <mxPoint x="729.9999999999998" y="440" as="targetPoint" />
          </mxGeometry>
        </mxCell>
        <mxCell id="BPcDjgkUr0C_K0aYlzvF-42" value="Yes" style="edgeLabel;html=1;align=center;verticalAlign=middle;resizable=0;points=[];" vertex="1" connectable="0" parent="BPcDjgkUr0C_K0aYlzvF-41">
          <mxGeometry x="0.55" y="-1" relative="1" as="geometry">
            <mxPoint x="1" y="5" as="offset" />
          </mxGeometry>
        </mxCell>
        <mxCell id="BPcDjgkUr0C_K0aYlzvF-43" style="edgeStyle=orthogonalEdgeStyle;rounded=0;orthogonalLoop=1;jettySize=auto;html=1;exitX=0.5;exitY=1;exitDx=0;exitDy=0;entryX=0.5;entryY=0;entryDx=0;entryDy=0;" edge="1" parent="1" source="BPcDjgkUr0C_K0aYlzvF-45" target="BPcDjgkUr0C_K0aYlzvF-47">
          <mxGeometry relative="1" as="geometry">
            <Array as="points">
              <mxPoint x="780" y="410" />
              <mxPoint x="830" y="410" />
            </Array>
          </mxGeometry>
        </mxCell>
        <mxCell id="BPcDjgkUr0C_K0aYlzvF-44" value="No" style="edgeLabel;html=1;align=center;verticalAlign=middle;resizable=0;points=[];" vertex="1" connectable="0" parent="BPcDjgkUr0C_K0aYlzvF-43">
          <mxGeometry x="0.5333" y="1" relative="1" as="geometry">
            <mxPoint x="-1" y="6" as="offset" />
          </mxGeometry>
        </mxCell>
        <mxCell id="BPcDjgkUr0C_K0aYlzvF-45" value="Motor On?" style="rhombus;whiteSpace=wrap;html=1;fontStyle=1;fillColor=#e1d5e7;strokeColor=#9673a6;" vertex="1" parent="1">
          <mxGeometry x="730" y="330" width="100" height="50" as="geometry" />
        </mxCell>
        <mxCell id="BPcDjgkUr0C_K0aYlzvF-47" value="Turn Motor Off" style="rounded=1;whiteSpace=wrap;html=1;fontStyle=1;fillColor=#d5e8d4;strokeColor=#82b366;" vertex="1" parent="1">
          <mxGeometry x="795" y="440" width="70" height="40" as="geometry" />
        </mxCell>
        <mxCell id="BPcDjgkUr0C_K0aYlzvF-46" value="Turn Motor On" style="rounded=1;whiteSpace=wrap;html=1;fontStyle=1;fillColor=#d5e8d4;strokeColor=#82b366;" vertex="1" parent="1">
          <mxGeometry x="695" y="440" width="70" height="40" as="geometry" />
        </mxCell>
      </root>
    </mxGraphModel>
  </diagram>
</mxfile>
